# xmcd
#
# Track frame offsets: 
#        150
#        35385
#        69800
#        103993
#        139696
#        171024
#        204251
#        239526
#
# Disc length: 3675 seconds
#
# Revision: 3
# Processed by: cddbd v1.5.2PL0 Copyright (c) Steve Scherf et al.
# Submitted via: ExactAudioCopyFreeDBPlugin 1.0
#
DISCID=670e5908
DTITLE=Various Artist - Unusual Suspects 2
DYEAR=2005
DGENRE=Psychedelic
TTITLE0=Younger Brother - Epic Hair
TTITLE1=Audio Chemistry - Long Long Arms
TTITLE2=Hallucinogen and Tristan - Stretch Tastic
TTITLE3=Prometheus - Oscar
TTITLE4=Tristan - Lost And Profound
TTITLE5=Metal Sharon - Balloon Dance
TTITLE6=Tristan and Prometheus - Grow More Pot
TTITLE7=Hikikomori - Black Ops
EXTD=YEAR: 2005
EXTT0=
EXTT1=
EXTT2=
EXTT3=
EXTT4=
EXTT5=
EXTT6=
EXTT7=
PLAYORDER=
